<svg xmlns="http://www.w3.org/2000/svg" viewBox="0 0 52 52"><g fill="none" stroke="#000" stroke-linecap="round" stroke-linejoin="round" stroke-miterlimit="10" stroke-width="2"><path d="M35.333 49.736H2C2 40.531 9.46 33.07 18.667 33.07s16.666 7.46 16.666 16.666z"/><path d="M25.983 24.188c0 4.038-3.272 8.887-7.31 8.887-1.096 0-2.132-.36-3.063-.961a8.105 8.105 0 0 1-2.071-1.921l-.045-.045c-1.336-1.712-2.147-3.934-2.147-5.96a7.326 7.326 0 0 1 7.326-7.326c4.038 0 7.31 3.288 7.31 7.326z"/></g><g fill="none" stroke="#000" stroke-linecap="round" stroke-linejoin="round" stroke-miterlimit="10" stroke-width="2"><circle cx="39.97" cy="12.293" r="10.03"/><path d="M36.054 12.293h7.833M39.97 16.21V8.377"/></g></svg>