<svg xmlns="http://www.w3.org/2000/svg" data-name="Layer 1" viewBox="0 0 512 512"><g data-name="&lt;Group&gt;"><path fill="#00acea" d="M291.2,227.3V201.9a36.348,36.348,0,0,0-10.7-25.8,35.7,35.7,0,0,0-12.6-8.2l.1-.3a18.394,18.394,0,1,0-31.4-13,18.782,18.782,0,0,0,5.4,13.1h0a37.243,37.243,0,0,0-16.6,12.4,36.371,36.371,0,0,0-7.1,18.2c-.1.6-.1,9.8-.1,18.1v13.2a36.5,36.5,0,1,0,73,0v-2.3ZM256,111.4A144.565,144.565,0,0,1,336.6,376l-.1-.2V323.6a37.894,37.894,0,0,0-37.7-41.7h-9.2l-6.8,14.7a28.853,28.853,0,0,1-10.7,12.2,29.255,29.255,0,0,1-15.6,4.5,28.953,28.953,0,0,1-26.8-17.9l-6-13.6H213.3a37.838,37.838,0,0,0-37.7,41.7v52.2l-.1.2a144.412,144.412,0,0,1-64-120C111.4,176.2,176.2,111.4,256,111.4Z"/><path fill="#00efd1" d="M336.5 375.8l.1.2a144.829 144.829 0 0 1-161.2 0l.1-.2V323.6a37.894 37.894 0 0 1 37.7-41.7h10.4l6 13.6a29.006 29.006 0 0 0 53.1 1.2l6.8-14.7h9.2a37.838 37.838 0 0 1 37.7 41.7l.1 52.1zM291.2 227.3v2.2a36.5 36.5 0 0 1-73 0V216.3h.2c16.6-1.9 32.2-8.4 40.6-22.3A104.027 104.027 0 0 1 291.2 227.3z"/><path fill="#4b5d63" d="M259,194a94.034,94.034,0,0,0-33.5-13.9l-.1-.1A36.7,36.7,0,0,1,242,167.6a35.363,35.363,0,0,1,12.7-2.3,36.039,36.039,0,0,1,13.2,2.5,38.123,38.123,0,0,1,12.6,8.2,36.348,36.348,0,0,1,10.7,25.8v25.4A104.64,104.64,0,0,0,259,194Z"/><path fill="#384549" d="M273.5 154.6a18.364 18.364 0 0 1-5.4 13l-.1.3a36.44 36.44 0 0 0-13.2-2.5 35.766 35.766 0 0 0-12.7 2.3h0a18.02 18.02 0 0 1-5.4-13.1 18.4 18.4 0 0 1 36.8 0zM225.5 180.1A94.034 94.034 0 0 1 259 194c-8.4 13.9-24.1 20.4-40.6 22.3h-.2c0-8.2.1-17.4.1-18.1a36.7 36.7 0 0 1 7.2-18.1z"/></g><path fill="#fedb41" d="M502.9 251l-29-28.9A7 7 0 0 0 464 232l17 16.9H430.5a7 7 0 0 0 0 14H481l-17 16.9a7.05 7.05 0 0 0 5 12 6.966 6.966 0 0 0 4.9-2l29-28.9a7.119 7.119 0 0 0 2.1-5A6.662 6.662 0 0 0 502.9 251zM279.9 464.1l-16.9 17V430.6a7 7 0 0 0-14 0v50.5l-16.9-17a7 7 0 1 0-9.9 9.9l28.9 29a7.119 7.119 0 0 0 5 2.1 6.882 6.882 0 0 0 5-2.1L290 474a7.062 7.062 0 0 0 0-9.9A7.308 7.308 0 0 0 279.9 464.1zM261 9.1A7.119 7.119 0 0 0 256 7a6.882 6.882 0 0 0-5 2.1l-28.9 29A7 7 0 0 0 232 48l16.9-17V81.5a7 7 0 1 0 14 0V30.9l16.9 17a7.049 7.049 0 0 0 5 2.1 6.966 6.966 0 0 0 4.9-2 7.063 7.063 0 0 0 0-9.9zM30.9 263H81.4a7 7 0 0 0 0-14H30.9l17-16.9a7 7 0 1 0-9.9-9.9L9.1 251A7.119 7.119 0 0 0 7 256a6.882 6.882 0 0 0 2.1 5l29 28.9a6.88 6.88 0 0 0 4.9 2 7.05 7.05 0 0 0 5-12zM427 379.2h0a6.957 6.957 0 0 0-7 7v23.9l-35.7-35.7a7 7 0 0 0-9.9 9.9L410.1 420h-24a7 7 0 0 0 0 14l40.9.1h0a6.8 6.8 0 0 0 4.9-2 6.634 6.634 0 0 0 2-5l-.1-40.9A6.728 6.728 0 0 0 427 379.2zM127.6 374.5L91.9 410.2v-24a6.957 6.957 0 0 0-7-7h0a6.957 6.957 0 0 0-7 7l-.1 40.9a7.2 7.2 0 0 0 2 5 7.028 7.028 0 0 0 5 2h0l40.9-.1a7 7 0 0 0 0-14H101.8l35.7-35.7a7.062 7.062 0 0 0 0-9.9A6.972 6.972 0 0 0 127.6 374.5zM379.4 139.6a6.662 6.662 0 0 0 4.9-2.1L420 101.8v24a6.957 6.957 0 0 0 7 7h0a6.957 6.957 0 0 0 7-7l.1-40.9a7.2 7.2 0 0 0-2-5 7.028 7.028 0 0 0-5-2h0l-40.9.1a7 7 0 0 0 0 14h23.9l-35.7 35.7a7.063 7.063 0 0 0 0 9.9A7.384 7.384 0 0 0 379.4 139.6zM84.9 132.8h0a6.957 6.957 0 0 0 7-7V101.9l35.7 35.7a7.049 7.049 0 0 0 5 2.1 6.966 6.966 0 0 0 4.9-2 7.063 7.063 0 0 0 0-9.9L101.8 92.1h24a7 7 0 1 0 0-14L84.9 78h0a7.2 7.2 0 0 0-5 2 6.634 6.634 0 0 0-2 5l.1 40.9A6.979 6.979 0 0 0 84.9 132.8z"/></svg>